<svg width="614" height="219" viewBox="0 0 614 219" fill="none" xmlns="http://www.w3.org/2000/svg">
<path d="M591.433 209.245L613.138 198.883C596.276 197.772 589.348 203.262 586.513 207.606C573.34 204.341 559 208.62 559 208.62L602.427 218.031C600.236 214.538 596.422 211.49 591.433 209.245Z" fill="#948FCA"/>
<path d="M430.433 10.5903L452.138 0.227884C435.276 -0.882558 428.348 4.60667 425.513 8.95144C412.34 5.68635 398 9.9654 398 9.9654L441.427 19.3763C439.236 15.8832 435.422 12.8355 430.433 10.5903Z" fill="#948FCA"/>
<path d="M32.433 65.2068L54.1376 54.8445C37.2763 53.734 30.3483 59.2233 27.5129 63.568C14.3401 60.3029 0 64.582 0 64.582L43.4269 73.9929C41.2361 70.4998 37.4224 67.4521 32.433 65.2068Z" fill="#948FCA"/>
</svg>
